<svg width="1443" height="240" viewBox="0 0 1443 240" fill="none" xmlns="http://www.w3.org/2000/svg">
<path d="M357.528 102.76H357.128L350.335 116.345L332.221 149.245L314.506 116.479L307.446 101.827H307.047V163.763H288V70.7929H309.444L332.221 114.348H332.487L354.997 70.7929H376.574V163.763H357.528V102.76Z" fill="#4CA1F5"/>
<path d="M408.053 86.3767C404.057 86.3767 401.127 85.4887 399.262 83.7128C397.486 81.8481 396.598 79.495 396.598 76.6535V73.7232C396.598 70.8817 397.486 68.573 399.262 66.7971C401.127 64.9324 404.057 64 408.053 64C412.049 64 414.935 64.9324 416.711 66.7971C418.575 68.573 419.508 70.8817 419.508 73.7232V76.6535C419.508 79.495 418.575 81.8481 416.711 83.7128C414.935 85.4887 412.049 86.3767 408.053 86.3767ZM398.197 93.8356H417.909V163.763H398.197V93.8356Z" fill="#4CA1F5"/>
<path d="M438.439 163.763V93.8356H458.152V105.69H458.951C460.194 102.049 462.37 98.897 465.478 96.2331C468.585 93.5692 472.892 92.2373 478.398 92.2373C485.59 92.2373 491.007 94.6348 494.647 99.4298C498.377 104.225 500.241 111.062 500.241 119.942V163.763H480.529V121.54C480.529 117.011 479.818 113.682 478.398 111.55C476.977 109.331 474.446 108.221 470.805 108.221C469.207 108.221 467.653 108.443 466.144 108.887C464.634 109.242 463.258 109.863 462.015 110.751C460.86 111.639 459.928 112.749 459.217 114.081C458.507 115.324 458.152 116.789 458.152 118.477V163.763H438.439Z" fill="#4CA1F5"/>
<path d="M529.771 86.3767C525.775 86.3767 522.845 85.4887 520.98 83.7128C519.204 81.8481 518.316 79.495 518.316 76.6535V73.7232C518.316 70.8817 519.204 68.573 520.98 66.7971C522.845 64.9324 525.775 64 529.771 64C533.767 64 536.653 64.9324 538.429 66.7971C540.293 68.573 541.226 70.8817 541.226 73.7232V76.6535C541.226 79.495 540.293 81.8481 538.429 83.7128C536.653 85.4887 533.767 86.3767 529.771 86.3767ZM519.915 93.8356H539.627V163.763H519.915V93.8356Z" fill="#4CA1F5"/>
<path d="M560.157 163.763V93.8356H579.87V105.69H580.669C581.912 102.049 584.088 98.897 587.196 96.2331C590.303 93.5692 594.61 92.2373 600.116 92.2373C607.308 92.2373 612.725 94.6348 616.365 99.4298C620.095 104.225 621.959 111.062 621.959 119.942V163.763H602.247V121.54C602.247 117.011 601.536 113.682 600.116 111.55C598.695 109.331 596.164 108.221 592.523 108.221C590.925 108.221 589.371 108.443 587.862 108.887C586.352 109.242 584.976 109.863 583.733 110.751C582.578 111.639 581.646 112.749 580.935 114.081C580.225 115.324 579.87 116.789 579.87 118.477V163.763H560.157Z" fill="#4CA1F5"/>
<path d="M706.365 168.824C706.365 172.554 705.699 175.839 704.367 178.681C703.124 181.522 701.037 183.92 698.107 185.873C695.177 187.915 691.27 189.425 686.386 190.402C681.591 191.467 675.642 192 668.538 192C662.5 192 657.35 191.6 653.087 190.801C648.914 190.091 645.495 189.025 642.831 187.605C640.256 186.273 638.347 184.586 637.104 182.543C635.95 180.59 635.372 178.325 635.372 175.75C635.372 171.843 636.527 168.78 638.836 166.56C641.144 164.34 644.341 162.964 648.426 162.431V160.966C645.051 160.344 642.521 158.923 640.833 156.703C639.146 154.395 638.303 151.731 638.303 148.712C638.303 146.847 638.658 145.249 639.368 143.917C640.168 142.496 641.144 141.297 642.299 140.32C643.542 139.255 644.963 138.411 646.561 137.79C648.159 137.168 649.758 136.68 651.356 136.325V135.792C647.094 133.838 643.941 131.174 641.899 127.8C639.857 124.337 638.836 120.341 638.836 115.813C638.836 108.709 641.277 103.026 646.161 98.7638C651.134 94.4128 658.682 92.2373 668.804 92.2373C673.422 92.2373 677.373 92.6812 680.659 93.5692V90.9053C680.659 87.1759 681.547 84.512 683.323 82.9136C685.187 81.2265 687.807 80.3829 691.181 80.3829H702.236V95.0343H686.786V95.8335C690.87 97.787 693.889 100.495 695.843 103.958C697.796 107.333 698.773 111.284 698.773 115.813C698.773 122.828 696.287 128.466 691.314 132.728C686.43 136.902 678.927 138.989 668.804 138.989C664.276 138.989 660.147 138.5 656.417 137.523C654.375 138.855 653.354 140.72 653.354 143.118C653.354 144.805 653.975 146.137 655.219 147.113C656.55 148.001 658.726 148.445 661.745 148.445H681.991C690.515 148.445 696.686 150.221 700.505 153.773C704.412 157.325 706.365 162.342 706.365 168.824ZM687.851 171.488C687.851 169.446 687.052 167.892 685.454 166.826C683.855 165.761 681.058 165.228 677.062 165.228H653.087C652.199 166.116 651.533 167.093 651.089 168.158C650.734 169.313 650.557 170.422 650.557 171.488C650.557 174.063 651.667 175.928 653.887 177.082C656.106 178.325 659.88 178.947 665.208 178.947H673.2C678.528 178.947 682.301 178.325 684.521 177.082C686.741 175.928 687.851 174.063 687.851 171.488ZM668.804 126.069C672.711 126.069 675.597 125.27 677.462 123.671C679.416 121.984 680.392 119.587 680.392 116.479V114.88C680.392 111.772 679.416 109.419 677.462 107.821C675.597 106.134 672.711 105.29 668.804 105.29C664.897 105.29 661.967 106.134 660.014 107.821C658.149 109.419 657.216 111.772 657.216 114.88V116.479C657.216 119.587 658.149 121.984 660.014 123.671C661.967 125.27 664.897 126.069 668.804 126.069Z" fill="#4CA1F5"/>
<path d="M756.21 163.763H735.965V70.7929H780.052C784.314 70.7929 788.177 71.5033 791.64 72.924C795.103 74.3448 798.034 76.3871 800.431 79.051C802.917 81.6261 804.826 84.734 806.158 88.3746C807.49 92.0153 808.156 96.0555 808.156 100.495C808.156 106.8 806.736 112.305 803.894 117.011C801.141 121.718 796.924 125.136 791.241 127.267L809.488 163.763H786.978L770.729 129.665H756.21V163.763ZM777.522 112.616C780.541 112.616 782.894 111.861 784.581 110.352C786.357 108.753 787.245 106.445 787.245 103.426V97.565C787.245 94.546 786.357 92.2816 784.581 90.7721C782.894 89.1738 780.541 88.3746 777.522 88.3746H756.21V112.616H777.522Z" fill="#2942C2"/>
<path d="M836.637 86.3767C832.641 86.3767 829.711 85.4887 827.846 83.7128C826.07 81.8481 825.182 79.495 825.182 76.6535V73.7232C825.182 70.8817 826.07 68.573 827.846 66.7971C829.711 64.9324 832.641 64 836.637 64C840.633 64 843.519 64.9324 845.295 66.7971C847.159 68.573 848.092 70.8817 848.092 73.7232V76.6535C848.092 79.495 847.159 81.8481 845.295 83.7128C843.519 85.4887 840.633 86.3767 836.637 86.3767ZM826.781 93.8356H846.493V163.763H826.781V93.8356Z" fill="#2942C2"/>
<path d="M931.756 168.824C931.756 172.554 931.09 175.839 929.758 178.681C928.515 181.522 926.428 183.92 923.498 185.873C920.567 187.915 916.66 189.425 911.777 190.402C906.982 191.467 901.032 192 893.928 192C887.89 192 882.74 191.6 878.478 190.801C874.304 190.091 870.886 189.025 868.222 187.605C865.647 186.273 863.738 184.586 862.495 182.543C861.34 180.59 860.763 178.325 860.763 175.75C860.763 171.843 861.917 168.78 864.226 166.56C866.535 164.34 869.731 162.964 873.816 162.431V160.966C870.442 160.344 867.911 158.923 866.224 156.703C864.537 154.395 863.693 151.731 863.693 148.712C863.693 146.847 864.048 145.249 864.759 143.917C865.558 142.496 866.535 141.297 867.689 140.32C868.932 139.255 870.353 138.411 871.951 137.79C873.55 137.168 875.148 136.68 876.746 136.325V135.792C872.484 133.838 869.332 131.174 867.29 127.8C865.247 124.337 864.226 120.341 864.226 115.813C864.226 108.709 866.668 103.026 871.552 98.7638C876.524 94.4128 884.072 92.2373 894.195 92.2373C898.812 92.2373 902.764 92.6812 906.049 93.5692V90.9053C906.049 87.1759 906.937 84.512 908.713 82.9136C910.578 81.2265 913.197 80.3829 916.572 80.3829H927.627V95.0343H912.176V95.8335C916.261 97.787 919.28 100.495 921.233 103.958C923.187 107.333 924.164 111.284 924.164 115.813C924.164 122.828 921.677 128.466 916.705 132.728C911.821 136.902 904.318 138.989 894.195 138.989C889.666 138.989 885.537 138.5 881.808 137.523C879.765 138.855 878.744 140.72 878.744 143.118C878.744 144.805 879.366 146.137 880.609 147.113C881.941 148.001 884.116 148.445 887.136 148.445H907.381C915.906 148.445 922.077 150.221 925.895 153.773C929.802 157.325 931.756 162.342 931.756 168.824ZM913.242 171.488C913.242 169.446 912.442 167.892 910.844 166.826C909.246 165.761 906.449 165.228 902.453 165.228H878.478C877.59 166.116 876.924 167.093 876.48 168.158C876.125 169.313 875.947 170.422 875.947 171.488C875.947 174.063 877.057 175.928 879.277 177.082C881.497 178.325 885.271 178.947 890.599 178.947H898.59C903.918 178.947 907.692 178.325 909.912 177.082C912.132 175.928 913.242 174.063 913.242 171.488ZM894.195 126.069C898.102 126.069 900.988 125.27 902.852 123.671C904.806 121.984 905.783 119.587 905.783 116.479V114.88C905.783 111.772 904.806 109.419 902.852 107.821C900.988 106.134 898.102 105.29 894.195 105.29C890.288 105.29 887.357 106.134 885.404 107.821C883.539 109.419 882.607 111.772 882.607 114.88V116.479C882.607 119.587 883.539 121.984 885.404 123.671C887.357 125.27 890.288 126.069 894.195 126.069Z" fill="#2942C2"/>
<path d="M1030.88 102.76H1030.48L1023.69 116.345L1005.57 149.245L987.857 116.479L980.798 101.827H980.398V163.763H961.352V70.7929H982.796L1005.57 114.348H1005.84L1028.35 70.7929H1049.93V163.763H1030.88V102.76Z" fill="#4CA1F5"/>
<path d="M1099.92 165.361C1094.77 165.361 1090.15 164.518 1086.07 162.83C1082.07 161.143 1078.65 158.701 1075.81 155.505C1073.06 152.308 1070.93 148.445 1069.42 143.917C1067.91 139.388 1067.15 134.327 1067.15 128.733C1067.15 123.138 1067.91 118.077 1069.42 113.548C1070.93 109.02 1073.06 105.202 1075.81 102.094C1078.65 98.897 1082.07 96.4551 1086.07 94.7679C1090.15 93.0808 1094.77 92.2373 1099.92 92.2373C1105.07 92.2373 1109.64 93.0808 1113.64 94.7679C1117.72 96.4551 1121.14 98.897 1123.89 102.094C1126.74 105.202 1128.91 109.02 1130.42 113.548C1131.93 118.077 1132.68 123.138 1132.68 128.733C1132.68 134.327 1131.93 139.388 1130.42 143.917C1128.91 148.445 1126.74 152.308 1123.89 155.505C1121.14 158.701 1117.72 161.143 1113.64 162.83C1109.64 164.518 1105.07 165.361 1099.92 165.361ZM1099.92 149.777C1103.83 149.777 1106.84 148.579 1108.98 146.181C1111.11 143.784 1112.17 140.365 1112.17 135.925V121.673C1112.17 117.233 1111.11 113.815 1108.98 111.417C1106.84 109.02 1103.83 107.821 1099.92 107.821C1096.01 107.821 1092.99 109.02 1090.86 111.417C1088.73 113.815 1087.66 117.233 1087.66 121.673V135.925C1087.66 140.365 1088.73 143.784 1090.86 146.181C1092.99 148.579 1096.01 149.777 1099.92 149.777Z" fill="#4CA1F5"/>
<path d="M1148.86 163.763V93.8356H1168.57V105.69H1169.37C1170.62 102.049 1172.79 98.897 1175.9 96.2331C1179.01 93.5692 1183.31 92.2373 1188.82 92.2373C1196.01 92.2373 1201.43 94.6348 1205.07 99.4298C1208.8 104.225 1210.66 111.062 1210.66 119.942V163.763H1190.95V121.54C1190.95 117.011 1190.24 113.682 1188.82 111.55C1187.4 109.331 1184.87 108.221 1181.23 108.221C1179.63 108.221 1178.08 108.443 1176.57 108.887C1175.06 109.242 1173.68 109.863 1172.44 110.751C1171.28 111.639 1170.35 112.749 1169.64 114.081C1168.93 115.324 1168.57 116.789 1168.57 118.477V163.763H1148.86Z" fill="#4CA1F5"/>
<path d="M1240.19 86.3767C1236.2 86.3767 1233.27 85.4887 1231.4 83.7128C1229.63 81.8481 1228.74 79.495 1228.74 76.6535V73.7232C1228.74 70.8817 1229.63 68.573 1231.4 66.7971C1233.27 64.9324 1236.2 64 1240.19 64C1244.19 64 1247.08 64.9324 1248.85 66.7971C1250.72 68.573 1251.65 70.8817 1251.65 73.7232V76.6535C1251.65 79.495 1250.72 81.8481 1248.85 83.7128C1247.08 85.4887 1244.19 86.3767 1240.19 86.3767ZM1230.34 93.8356H1250.05V163.763H1230.34V93.8356Z" fill="#4CA1F5"/>
<path d="M1295.09 163.763C1288.25 163.763 1283.06 162.031 1279.5 158.568C1276.04 155.105 1274.31 150.044 1274.31 143.384V109.153H1264.45V93.8356H1269.38C1272.04 93.8356 1273.86 93.214 1274.84 91.9709C1275.82 90.6389 1276.31 88.7742 1276.31 86.3767V74.922H1294.02V93.8356H1307.87V109.153H1294.02V148.445H1306.81V163.763H1295.09Z" fill="#4CA1F5"/>
<path d="M1351.55 165.361C1346.4 165.361 1341.78 164.518 1337.7 162.83C1333.7 161.143 1330.28 158.701 1327.44 155.505C1324.69 152.308 1322.56 148.445 1321.05 143.917C1319.54 139.388 1318.78 134.327 1318.78 128.733C1318.78 123.138 1319.54 118.077 1321.05 113.548C1322.56 109.02 1324.69 105.202 1327.44 102.094C1330.28 98.897 1333.7 96.4551 1337.7 94.7679C1341.78 93.0808 1346.4 92.2373 1351.55 92.2373C1356.7 92.2373 1361.27 93.0808 1365.27 94.7679C1369.35 96.4551 1372.77 98.897 1375.52 102.094C1378.37 105.202 1380.54 109.02 1382.05 113.548C1383.56 118.077 1384.32 123.138 1384.32 128.733C1384.32 134.327 1383.56 139.388 1382.05 143.917C1380.54 148.445 1378.37 152.308 1375.52 155.505C1372.77 158.701 1369.35 161.143 1365.27 162.83C1361.27 164.518 1356.7 165.361 1351.55 165.361ZM1351.55 149.777C1355.46 149.777 1358.48 148.579 1360.61 146.181C1362.74 143.784 1363.8 140.365 1363.8 135.925V121.673C1363.8 117.233 1362.74 113.815 1360.61 111.417C1358.48 109.02 1355.46 107.821 1351.55 107.821C1347.64 107.821 1344.62 109.02 1342.49 111.417C1340.36 113.815 1339.3 117.233 1339.3 121.673V135.925C1339.3 140.365 1340.36 143.784 1342.49 146.181C1344.62 148.579 1347.64 149.777 1351.55 149.777Z" fill="#4CA1F5"/>
<path d="M1400.49 163.763V93.8356H1420.2V109.02H1420.87C1421.23 107.066 1421.85 105.202 1422.74 103.426C1423.62 101.561 1424.78 99.9181 1426.2 98.4974C1427.71 97.0767 1429.48 95.9667 1431.53 95.1675C1433.57 94.2796 1435.97 93.8356 1438.72 93.8356H1442.18V112.216H1437.25C1431.48 112.216 1427.18 112.971 1424.33 114.481C1421.58 115.99 1420.2 118.787 1420.2 122.872V163.763H1400.49Z" fill="#4CA1F5"/>
<mask id="mask0_942_270" style="mask-type:alpha" maskUnits="userSpaceOnUse" x="4" y="20" width="232" height="201">
<path d="M9.19981 93.6117C7.47888 96.5924 5.92848 99.6248 4.54558 102.698C2.3462 107.585 7.19928 110.775 11.9131 108.226C19.135 104.32 29.0505 101.002 40.6419 102.518C33.392 142.919 51.6001 185.307 89.1957 207.013C128.961 229.971 177.922 222.578 209.251 192.021C209.251 192.021 234.583 166.725 224.746 134.53C223.889 131.726 219.709 132.353 219.06 135.212C216.793 145.205 211.339 160.254 198.293 171.23C185.945 181.618 168.742 184.43 158.013 185.113C155.144 185.295 154.242 188.682 156.94 189.676C165.711 192.909 177.137 194.859 185.933 195.502C162.06 203.208 132.123 197.082 125.036 173.567C117.949 150.053 132.466 129.919 151.594 121.126C170.721 112.333 193.542 111.458 212.322 111.142C227.345 110.889 236.578 102.771 235.971 93.8007C235.364 84.8309 218.269 81.5141 212.725 80.3796C208.29 79.472 206.949 72.1709 204.993 62.2777C198.356 28.719 152.154 20.8216 152.069 20.8071C122.866 17.0691 93.1101 26.424 71.2846 46.5982C46.0171 53.0266 23.2658 69.2487 9.19981 93.6117Z" fill="#3394F5"/>
</mask>
<g mask="url(#mask0_942_270)">
<path d="M134.273 90.1475L250.947 96.5896L239.137 119.853L159.684 135.242L134.273 90.1475Z" fill="white"/>
<path d="M234.248 127.202L234.247 175.162L161.832 258.358L109.937 175.162L234.248 127.202Z" fill="#AED2F5"/>
<path d="M128.19 164.948L150.02 174.61L134.251 280.192L29.0534 202.169L128.19 164.948Z" fill="#7DB5F5"/>
<path d="M101.348 131.306L75.9366 161.011L109.937 174.969L98.1269 259.432L35.1372 202.169L21.8953 127.727L101.348 131.306Z" fill="#1873DB"/>
<path d="M148.59 135.958L133.917 167.095L108.148 174.253L74.1484 160.653L103.496 131.664L51.5999 82.632L121.389 99.0952L148.59 135.958Z" fill="#AED2F5"/>
<path d="M123.178 5.32812L250.589 32.5264L250.589 100.169L128.546 97.6651L123.178 5.32812Z" fill="#4CA1F5"/>
<path d="M150.828 -41.1918L178.294 -2.18886L167.2 68.6743L108.863 49.348L63.4102 56.5714L150.828 -41.1918Z" fill="#1873DB"/>
<path d="M167.201 69.0317L153.958 148.127L119.958 100.885L110.653 49.7055L167.201 69.0317Z" fill="#7DB5F5"/>
<path d="M61.2632 -3.97854L110.295 50.4216L118.169 98.0216L50.8832 82.6322L103.137 129.516L75.9369 160.653L24.758 180.337L-22.4843 132.022L61.2632 -3.97854Z" fill="#4CA1F5"/>
<circle cx="166.486" cy="68.6741" r="17.179" fill="#2942C2"/>
<path fill-rule="evenodd" clip-rule="evenodd" d="M110.652 43.6211C114.21 43.6211 117.094 46.5053 117.094 50.0632C117.094 50.3471 117.073 50.6264 117.038 50.9006L149.66 61.5822C152.428 55.024 158.918 50.4211 166.484 50.4211C176.565 50.4211 184.737 58.5931 184.737 68.6737C184.737 78.7544 176.565 86.9264 166.484 86.9264C156.403 86.9264 148.231 78.7544 148.231 68.6737C148.231 66.916 148.481 65.2165 148.944 63.608L116.409 52.9543C115.574 54.6133 114.045 55.8615 112.201 56.3166L118.622 92.4339C119.053 92.343 119.5 92.2948 119.958 92.2948C123.515 92.2948 126.4 95.179 126.4 98.7369C126.4 102.295 123.515 105.179 119.958 105.179C116.4 105.179 113.515 102.295 113.515 98.7369C113.515 98.4932 113.53 98.2529 113.557 98.0162L61.3187 86.4077C60.9086 87.5407 60.3195 88.5878 59.5851 89.5148L98.6167 125.316C99.7394 124.364 101.192 123.79 102.779 123.79C106.336 123.79 109.221 126.674 109.221 130.232C109.221 133.79 106.336 136.674 102.779 136.674C101.601 136.674 100.499 136.356 99.5491 135.805L80.9575 156.568C82.059 157.724 82.7365 159.288 82.7365 161.011C82.7365 161.717 82.6208 162.396 82.4107 163.032L102.238 170.799C103.737 168.769 106.146 167.453 108.863 167.453C113.409 167.453 117.094 171.138 117.094 175.684C117.094 179.931 113.878 183.425 109.749 183.867L103.841 225.226L101.715 224.922L107.586 183.817C103.646 183.203 100.631 179.796 100.631 175.684C100.631 174.63 100.831 173.623 101.193 172.696L81.3965 164.941C80.2184 166.468 78.372 167.453 76.2944 167.453C72.7365 167.453 69.8522 164.569 69.8522 161.011C69.8522 157.453 72.7365 154.569 76.2944 154.569C77.3527 154.569 78.3507 154.825 79.2316 155.277L97.8953 134.431C96.9244 133.303 96.3365 131.837 96.3365 130.232C96.3365 129.036 96.663 127.917 97.2305 126.957L58.0955 91.0617C56.156 92.7225 53.6374 93.7264 50.8838 93.7264C44.7563 93.7264 39.7891 88.7591 39.7891 82.6316C39.7891 76.5042 44.7563 71.5369 50.8838 71.5369C57.0113 71.5369 61.9786 76.5042 61.9786 82.6316C61.9786 83.2078 61.9339 83.7736 61.8492 84.3261L114.148 95.9486C114.685 94.8311 115.536 93.8929 116.585 93.2469L110.048 56.476C106.774 56.1714 104.21 53.4174 104.21 50.0632C104.21 46.5053 107.094 43.6211 110.652 43.6211ZM166.484 52.5685C157.589 52.5685 150.379 59.779 150.379 68.6737C150.379 77.5684 157.589 84.779 166.484 84.779C175.379 84.779 182.589 77.5684 182.589 68.6737C182.589 59.779 175.379 52.5685 166.484 52.5685Z" fill="white"/>
<path d="M166.084 57.2217C172.188 57.2217 177.137 62.1701 177.137 68.2743C177.137 70.1879 176.65 71.988 175.794 73.5576C175.794 73.5576 173.552 67.9585 166.084 67.9585C158.615 67.9585 156.373 73.5576 156.373 73.5576C155.518 71.988 155.031 70.1879 155.031 68.2743C155.031 62.1701 159.98 57.2217 166.084 57.2217Z" fill="white"/>
</g>
<path d="M9.19981 93.6117C7.47888 96.5924 5.92848 99.6248 4.54558 102.698C2.3462 107.585 7.19928 110.775 11.9131 108.226C19.135 104.32 29.0505 101.002 40.6419 102.518C33.392 142.919 51.6001 185.307 89.1957 207.013C128.961 229.971 177.922 222.578 209.251 192.021C209.251 192.021 234.583 166.725 224.746 134.53C223.889 131.726 219.709 132.353 219.06 135.212C216.793 145.205 211.339 160.254 198.293 171.23C185.945 181.618 168.742 184.43 158.013 185.113C155.144 185.295 154.242 188.682 156.94 189.676C165.711 192.909 177.137 194.859 185.933 195.502C162.06 203.208 132.123 197.082 125.036 173.567C117.949 150.053 132.466 129.919 151.594 121.126C170.721 112.333 193.542 111.458 212.322 111.142C227.345 110.889 236.578 102.771 235.971 93.8007C235.364 84.8309 218.269 81.5141 212.725 80.3796C208.29 79.472 206.949 72.1709 204.993 62.2777C198.356 28.719 152.154 20.8216 152.069 20.8071C122.866 17.0691 93.1101 26.424 71.2846 46.5982C46.0171 53.0266 23.2658 69.2487 9.19981 93.6117Z" fill="#4CA1F5"/>
<path d="M235.945 95.7612C235.188 103.921 226.241 110.908 212.321 111.142C193.578 111.458 170.807 112.33 151.702 121.077L134.273 90.1475L235.945 95.7612Z" fill="#AED2F5"/>
<path d="M219.061 135.212C219.71 132.353 223.889 131.726 224.746 134.53C234.582 166.725 209.251 192.022 209.251 192.022C190.105 210.695 164.375 220.717 138.183 220.449L109.936 175.162L124.058 169.713C124.321 170.986 124.646 172.272 125.036 173.568C132.123 197.082 162.06 203.209 185.933 195.502C177.138 194.859 165.712 192.91 156.94 189.676C154.242 188.682 155.144 185.296 158.013 185.113C168.742 184.431 185.946 181.619 198.293 171.231C211.34 160.254 216.794 145.205 219.061 135.212Z" fill="white"/>
<path d="M123.552 166.689C123.846 168.943 124.336 171.239 125.038 173.567C128.34 184.525 136.605 191.706 146.905 195.472L143.186 220.375C124.907 221.101 106.211 216.836 89.1972 207.013C80.2779 201.863 72.4508 195.549 65.7949 188.374L123.552 166.689Z" fill="#C6E2F5"/>
<path d="M101.348 131.306L75.9372 161.011L109.938 174.969L104.452 214.2C99.2587 212.267 94.1562 209.877 89.1968 207.013C59.6496 189.954 42.0778 160.12 39.4277 128.516L101.348 131.306Z" fill="#1873DB"/>
<path d="M121.391 99.095L141.89 126.876C128.88 136.544 120.378 152.062 124.084 169.826L108.15 174.253L74.1496 160.653L103.498 131.663L51.6016 82.6318L121.391 99.095Z" fill="#AED2F5"/>
<path d="M124.1 21.1751C133.294 19.7579 142.711 19.6093 152.071 20.8074C152.156 20.8219 198.358 28.7197 204.994 62.2785C206.951 72.1715 208.292 79.4725 212.727 80.3801C218.271 81.5146 235.365 84.8315 235.973 93.8012C236.114 95.8918 235.72 97.9356 234.844 99.8449L128.547 97.6653L124.1 21.1751Z" fill="#4CA1F5"/>
<path d="M75.9407 42.5568C97.2379 25.1902 124.892 17.3284 152.069 20.807C152.108 20.8138 162.186 22.5377 173.601 27.7818L167.2 68.6741L108.863 49.3478L63.4102 56.5707L75.9407 42.5568Z" fill="#1873DB"/>
<path d="M167.2 69.0319L158.973 118.168C156.465 119.039 154 120.02 151.594 121.126C147.387 123.06 143.403 125.542 139.824 128.488L119.958 100.885L110.652 49.7056L167.2 69.0319Z" fill="#7DB5F5"/>
<path d="M110.294 50.4219L118.168 98.022L50.8831 82.6325L103.136 129.517L75.9365 160.654L52.1861 169.788C40.7105 149.571 36.479 125.717 40.6419 102.519C29.0507 101.002 19.1351 104.32 11.9131 108.226C7.19938 110.776 2.34631 107.585 4.5455 102.698C5.9284 99.6256 7.47861 96.5926 9.19953 93.6119C23.2655 69.2491 46.0171 53.0274 71.2845 46.599C77.8959 40.4879 85.2355 35.3705 93.0665 31.3081L110.294 50.4219Z" fill="#4CA1F5"/>
<circle cx="166.486" cy="68.6741" r="17.179" fill="#2942C2"/>
<path fill-rule="evenodd" clip-rule="evenodd" d="M110.652 43.6211C114.21 43.6211 117.094 46.5053 117.094 50.0632C117.094 50.3471 117.073 50.6264 117.038 50.9006L149.66 61.5822C152.428 55.024 158.918 50.4211 166.484 50.4211C176.565 50.4211 184.737 58.5931 184.737 68.6737C184.737 78.7544 176.565 86.9264 166.484 86.9264C156.403 86.9264 148.231 78.7544 148.231 68.6737C148.231 66.916 148.481 65.2165 148.944 63.608L116.409 52.9543C115.574 54.6133 114.045 55.8615 112.201 56.3166L118.622 92.4339C119.053 92.343 119.5 92.2948 119.958 92.2948C123.515 92.2948 126.4 95.179 126.4 98.7369C126.4 102.295 123.515 105.179 119.958 105.179C116.4 105.179 113.515 102.295 113.515 98.7369C113.515 98.4932 113.53 98.2529 113.557 98.0162L61.3187 86.4077C60.9086 87.5407 60.3195 88.5878 59.5851 89.5148L98.6167 125.316C99.7394 124.364 101.192 123.79 102.779 123.79C106.336 123.79 109.221 126.674 109.221 130.232C109.221 133.79 106.336 136.674 102.779 136.674C101.601 136.674 100.499 136.356 99.5491 135.805L80.9575 156.568C82.059 157.724 82.7365 159.288 82.7365 161.011C82.7365 161.717 82.6208 162.396 82.4107 163.032L102.238 170.799C103.737 168.769 106.146 167.453 108.863 167.453C113.409 167.453 117.094 171.138 117.094 175.684C117.094 179.931 113.878 183.425 109.749 183.867L105.368 214.536C104.679 214.288 103.993 214.03 103.308 213.766L107.586 183.817C103.646 183.203 100.631 179.796 100.631 175.684C100.631 174.63 100.831 173.623 101.193 172.696L81.3965 164.941C80.2184 166.468 78.372 167.453 76.2944 167.453C72.7365 167.453 69.8522 164.569 69.8522 161.011C69.8522 157.453 72.7365 154.569 76.2944 154.569C77.3527 154.569 78.3507 154.825 79.2316 155.277L97.8953 134.431C96.9244 133.303 96.3365 131.837 96.3365 130.232C96.3365 129.036 96.663 127.917 97.2305 126.957L58.0955 91.0617C56.156 92.7225 53.6374 93.7264 50.8838 93.7264C44.7563 93.7264 39.7891 88.7591 39.7891 82.6316C39.7891 76.5042 44.7563 71.5369 50.8838 71.5369C57.0113 71.5369 61.9786 76.5042 61.9786 82.6316C61.9786 83.2078 61.9339 83.7736 61.8492 84.3261L114.148 95.9486C114.685 94.8311 115.536 93.8929 116.585 93.2469L110.048 56.476C106.774 56.1714 104.21 53.4174 104.21 50.0632C104.21 46.5053 107.094 43.6211 110.652 43.6211ZM166.484 52.5685C157.589 52.5685 150.379 59.779 150.379 68.6737C150.379 77.5684 157.589 84.779 166.484 84.779C175.379 84.779 182.589 77.5684 182.589 68.6737C182.589 59.779 175.379 52.5685 166.484 52.5685Z" fill="white"/>
<path d="M166.084 57.2217C172.188 57.2217 177.137 62.1701 177.137 68.2743C177.137 70.1879 176.65 71.988 175.794 73.5576C175.794 73.5576 173.552 67.9585 166.084 67.9585C158.615 67.9585 156.373 73.5576 156.373 73.5576C155.518 71.988 155.031 70.1879 155.031 68.2743C155.031 62.1701 159.98 57.2217 166.084 57.2217Z" fill="white"/>
</svg>
