<svg width="240" height="240" viewBox="0 0 240 240" fill="none" xmlns="http://www.w3.org/2000/svg">
<mask id="mask0_940_538" style="mask-type:alpha" maskUnits="userSpaceOnUse" x="4" y="20" width="232" height="201">
<path d="M9.19981 93.6117C7.47888 96.5924 5.92848 99.6248 4.54558 102.698C2.3462 107.585 7.19928 110.775 11.9131 108.226C19.135 104.32 29.0505 101.002 40.6419 102.518C33.392 142.919 51.6001 185.307 89.1957 207.013C128.961 229.971 177.922 222.578 209.251 192.021C209.251 192.021 234.583 166.725 224.746 134.53C223.889 131.726 219.709 132.353 219.06 135.212C216.793 145.205 211.339 160.254 198.293 171.23C185.945 181.618 168.742 184.43 158.013 185.113C155.144 185.295 154.242 188.682 156.94 189.676C165.711 192.909 177.137 194.859 185.933 195.502C162.06 203.208 132.123 197.082 125.036 173.567C117.949 150.053 132.466 129.919 151.594 121.126C170.721 112.333 193.542 111.458 212.322 111.142C227.345 110.889 236.578 102.771 235.971 93.8007C235.364 84.8309 218.269 81.5141 212.725 80.3796C208.29 79.472 206.949 72.1709 204.993 62.2777C198.356 28.719 152.154 20.8216 152.069 20.8071C122.866 17.0691 93.1101 26.424 71.2846 46.5982C46.0171 53.0266 23.2658 69.2487 9.19981 93.6117Z" fill="#3394F5"/>
</mask>
<g mask="url(#mask0_940_538)">
<path d="M134.273 90.1475L250.947 96.5896L239.137 119.853L159.684 135.242L134.273 90.1475Z" fill="white"/>
<path d="M234.248 127.202L234.247 175.162L161.832 258.358L109.937 175.162L234.248 127.202Z" fill="#AED2F5"/>
<path d="M128.19 164.948L150.02 174.61L134.251 280.192L29.0534 202.169L128.19 164.948Z" fill="#7DB5F5"/>
<path d="M101.348 131.306L75.9366 161.011L109.937 174.969L98.1269 259.432L35.1372 202.169L21.8953 127.727L101.348 131.306Z" fill="#1873DB"/>
<path d="M148.59 135.958L133.917 167.095L108.148 174.253L74.1484 160.653L103.496 131.664L51.5999 82.632L121.389 99.0952L148.59 135.958Z" fill="#AED2F5"/>
<path d="M123.178 5.32812L250.589 32.5264L250.589 100.169L128.546 97.6651L123.178 5.32812Z" fill="#4CA1F5"/>
<path d="M150.828 -41.1918L178.294 -2.18886L167.2 68.6743L108.863 49.348L63.4102 56.5714L150.828 -41.1918Z" fill="#1873DB"/>
<path d="M167.201 69.0317L153.958 148.127L119.958 100.885L110.653 49.7055L167.201 69.0317Z" fill="#7DB5F5"/>
<path d="M61.2632 -3.97854L110.295 50.4216L118.169 98.0216L50.8832 82.6322L103.137 129.516L75.9369 160.653L24.758 180.337L-22.4843 132.022L61.2632 -3.97854Z" fill="#4CA1F5"/>
<circle cx="166.486" cy="68.6741" r="17.179" fill="#2942C2"/>
<path fill-rule="evenodd" clip-rule="evenodd" d="M110.652 43.6211C114.21 43.6211 117.094 46.5053 117.094 50.0632C117.094 50.3471 117.073 50.6264 117.038 50.9006L149.66 61.5822C152.428 55.024 158.918 50.4211 166.484 50.4211C176.565 50.4211 184.737 58.5931 184.737 68.6737C184.737 78.7544 176.565 86.9264 166.484 86.9264C156.403 86.9264 148.231 78.7544 148.231 68.6737C148.231 66.916 148.481 65.2165 148.944 63.608L116.409 52.9543C115.574 54.6133 114.045 55.8615 112.201 56.3166L118.622 92.4339C119.053 92.343 119.5 92.2948 119.958 92.2948C123.515 92.2948 126.4 95.179 126.4 98.7369C126.4 102.295 123.515 105.179 119.958 105.179C116.4 105.179 113.515 102.295 113.515 98.7369C113.515 98.4932 113.53 98.2529 113.557 98.0162L61.3187 86.4077C60.9086 87.5407 60.3195 88.5878 59.5851 89.5148L98.6167 125.316C99.7394 124.364 101.192 123.79 102.779 123.79C106.336 123.79 109.221 126.674 109.221 130.232C109.221 133.79 106.336 136.674 102.779 136.674C101.601 136.674 100.499 136.356 99.5491 135.805L80.9575 156.568C82.059 157.724 82.7365 159.288 82.7365 161.011C82.7365 161.717 82.6208 162.396 82.4107 163.032L102.238 170.799C103.737 168.769 106.146 167.453 108.863 167.453C113.409 167.453 117.094 171.138 117.094 175.684C117.094 179.931 113.878 183.425 109.749 183.867L103.841 225.226L101.715 224.922L107.586 183.817C103.646 183.203 100.631 179.796 100.631 175.684C100.631 174.63 100.831 173.623 101.193 172.696L81.3965 164.941C80.2184 166.468 78.372 167.453 76.2944 167.453C72.7365 167.453 69.8522 164.569 69.8522 161.011C69.8522 157.453 72.7365 154.569 76.2944 154.569C77.3527 154.569 78.3507 154.825 79.2316 155.277L97.8953 134.431C96.9244 133.303 96.3365 131.837 96.3365 130.232C96.3365 129.036 96.663 127.917 97.2305 126.957L58.0955 91.0617C56.156 92.7225 53.6374 93.7264 50.8838 93.7264C44.7563 93.7264 39.7891 88.7591 39.7891 82.6316C39.7891 76.5042 44.7563 71.5369 50.8838 71.5369C57.0113 71.5369 61.9786 76.5042 61.9786 82.6316C61.9786 83.2078 61.9339 83.7736 61.8492 84.3261L114.148 95.9486C114.685 94.8311 115.536 93.8929 116.585 93.2469L110.048 56.476C106.774 56.1714 104.21 53.4174 104.21 50.0632C104.21 46.5053 107.094 43.6211 110.652 43.6211ZM166.484 52.5685C157.589 52.5685 150.379 59.779 150.379 68.6737C150.379 77.5684 157.589 84.779 166.484 84.779C175.379 84.779 182.589 77.5684 182.589 68.6737C182.589 59.779 175.379 52.5685 166.484 52.5685Z" fill="white"/>
<path d="M166.084 57.2217C172.188 57.2217 177.137 62.1701 177.137 68.2743C177.137 70.1879 176.65 71.988 175.794 73.5576C175.794 73.5576 173.552 67.9585 166.084 67.9585C158.615 67.9585 156.373 73.5576 156.373 73.5576C155.518 71.988 155.031 70.1879 155.031 68.2743C155.031 62.1701 159.98 57.2217 166.084 57.2217Z" fill="white"/>
</g>
<path d="M9.19981 93.6117C7.47888 96.5924 5.92848 99.6248 4.54558 102.698C2.3462 107.585 7.19928 110.775 11.9131 108.226C19.135 104.32 29.0505 101.002 40.6419 102.518C33.392 142.919 51.6001 185.307 89.1957 207.013C128.961 229.971 177.922 222.578 209.251 192.021C209.251 192.021 234.583 166.725 224.746 134.53C223.889 131.726 219.709 132.353 219.06 135.212C216.793 145.205 211.339 160.254 198.293 171.23C185.945 181.618 168.742 184.43 158.013 185.113C155.144 185.295 154.242 188.682 156.94 189.676C165.711 192.909 177.137 194.859 185.933 195.502C162.06 203.208 132.123 197.082 125.036 173.567C117.949 150.053 132.466 129.919 151.594 121.126C170.721 112.333 193.542 111.458 212.322 111.142C227.345 110.889 236.578 102.771 235.971 93.8007C235.364 84.8309 218.269 81.5141 212.725 80.3796C208.29 79.472 206.949 72.1709 204.993 62.2777C198.356 28.719 152.154 20.8216 152.069 20.8071C122.866 17.0691 93.1101 26.424 71.2846 46.5982C46.0171 53.0266 23.2658 69.2487 9.19981 93.6117Z" fill="#4CA1F5"/>
<path d="M235.945 95.7612C235.188 103.921 226.241 110.908 212.321 111.142C193.578 111.458 170.807 112.33 151.702 121.077L134.273 90.1475L235.945 95.7612Z" fill="#AED2F5"/>
<path d="M219.061 135.212C219.71 132.353 223.889 131.726 224.746 134.53C234.582 166.725 209.251 192.022 209.251 192.022C190.105 210.695 164.375 220.717 138.183 220.449L109.936 175.162L124.058 169.713C124.321 170.986 124.646 172.272 125.036 173.568C132.123 197.082 162.06 203.209 185.933 195.502C177.138 194.859 165.712 192.91 156.94 189.676C154.242 188.682 155.144 185.296 158.013 185.113C168.742 184.431 185.946 181.619 198.293 171.231C211.34 160.254 216.794 145.205 219.061 135.212Z" fill="white"/>
<path d="M123.552 166.689C123.846 168.943 124.336 171.239 125.038 173.567C128.34 184.525 136.605 191.706 146.905 195.472L143.186 220.375C124.907 221.101 106.211 216.836 89.1972 207.013C80.2779 201.863 72.4508 195.549 65.7949 188.374L123.552 166.689Z" fill="#C6E2F5"/>
<path d="M101.348 131.306L75.9372 161.011L109.938 174.969L104.452 214.2C99.2587 212.267 94.1562 209.877 89.1968 207.013C59.6496 189.954 42.0778 160.12 39.4277 128.516L101.348 131.306Z" fill="#1873DB"/>
<path d="M121.391 99.095L141.89 126.876C128.88 136.544 120.378 152.062 124.084 169.826L108.15 174.253L74.1496 160.653L103.498 131.663L51.6016 82.6318L121.391 99.095Z" fill="#AED2F5"/>
<path d="M124.1 21.1751C133.294 19.7579 142.711 19.6093 152.071 20.8074C152.156 20.8219 198.358 28.7197 204.994 62.2785C206.951 72.1715 208.292 79.4725 212.727 80.3801C218.271 81.5146 235.365 84.8315 235.973 93.8012C236.114 95.8918 235.72 97.9356 234.844 99.8449L128.547 97.6653L124.1 21.1751Z" fill="#4CA1F5"/>
<path d="M75.9407 42.5568C97.2379 25.1902 124.892 17.3284 152.069 20.807C152.108 20.8138 162.186 22.5377 173.601 27.7818L167.2 68.6741L108.863 49.3478L63.4102 56.5707L75.9407 42.5568Z" fill="#1873DB"/>
<path d="M167.2 69.0319L158.973 118.168C156.465 119.039 154 120.02 151.594 121.126C147.387 123.06 143.403 125.542 139.824 128.488L119.958 100.885L110.652 49.7056L167.2 69.0319Z" fill="#7DB5F5"/>
<path d="M110.294 50.4219L118.168 98.022L50.8831 82.6325L103.136 129.517L75.9365 160.654L52.1861 169.788C40.7105 149.571 36.479 125.717 40.6419 102.519C29.0507 101.002 19.1351 104.32 11.9131 108.226C7.19938 110.776 2.34631 107.585 4.5455 102.698C5.9284 99.6256 7.47861 96.5926 9.19953 93.6119C23.2655 69.2491 46.0171 53.0274 71.2845 46.599C77.8959 40.4879 85.2355 35.3705 93.0665 31.3081L110.294 50.4219Z" fill="#4CA1F5"/>
<circle cx="166.486" cy="68.6741" r="17.179" fill="#2942C2"/>
<path fill-rule="evenodd" clip-rule="evenodd" d="M110.652 43.6211C114.21 43.6211 117.094 46.5053 117.094 50.0632C117.094 50.3471 117.073 50.6264 117.038 50.9006L149.66 61.5822C152.428 55.024 158.918 50.4211 166.484 50.4211C176.565 50.4211 184.737 58.5931 184.737 68.6737C184.737 78.7544 176.565 86.9264 166.484 86.9264C156.403 86.9264 148.231 78.7544 148.231 68.6737C148.231 66.916 148.481 65.2165 148.944 63.608L116.409 52.9543C115.574 54.6133 114.045 55.8615 112.201 56.3166L118.622 92.4339C119.053 92.343 119.5 92.2948 119.958 92.2948C123.515 92.2948 126.4 95.179 126.4 98.7369C126.4 102.295 123.515 105.179 119.958 105.179C116.4 105.179 113.515 102.295 113.515 98.7369C113.515 98.4932 113.53 98.2529 113.557 98.0162L61.3187 86.4077C60.9086 87.5407 60.3195 88.5878 59.5851 89.5148L98.6167 125.316C99.7394 124.364 101.192 123.79 102.779 123.79C106.336 123.79 109.221 126.674 109.221 130.232C109.221 133.79 106.336 136.674 102.779 136.674C101.601 136.674 100.499 136.356 99.5491 135.805L80.9575 156.568C82.059 157.724 82.7365 159.288 82.7365 161.011C82.7365 161.717 82.6208 162.396 82.4107 163.032L102.238 170.799C103.737 168.769 106.146 167.453 108.863 167.453C113.409 167.453 117.094 171.138 117.094 175.684C117.094 179.931 113.878 183.425 109.749 183.867L105.368 214.536C104.679 214.288 103.993 214.03 103.308 213.766L107.586 183.817C103.646 183.203 100.631 179.796 100.631 175.684C100.631 174.63 100.831 173.623 101.193 172.696L81.3965 164.941C80.2184 166.468 78.372 167.453 76.2944 167.453C72.7365 167.453 69.8522 164.569 69.8522 161.011C69.8522 157.453 72.7365 154.569 76.2944 154.569C77.3527 154.569 78.3507 154.825 79.2316 155.277L97.8953 134.431C96.9244 133.303 96.3365 131.837 96.3365 130.232C96.3365 129.036 96.663 127.917 97.2305 126.957L58.0955 91.0617C56.156 92.7225 53.6374 93.7264 50.8838 93.7264C44.7563 93.7264 39.7891 88.7591 39.7891 82.6316C39.7891 76.5042 44.7563 71.5369 50.8838 71.5369C57.0113 71.5369 61.9786 76.5042 61.9786 82.6316C61.9786 83.2078 61.9339 83.7736 61.8492 84.3261L114.148 95.9486C114.685 94.8311 115.536 93.8929 116.585 93.2469L110.048 56.476C106.774 56.1714 104.21 53.4174 104.21 50.0632C104.21 46.5053 107.094 43.6211 110.652 43.6211ZM166.484 52.5685C157.589 52.5685 150.379 59.779 150.379 68.6737C150.379 77.5684 157.589 84.779 166.484 84.779C175.379 84.779 182.589 77.5684 182.589 68.6737C182.589 59.779 175.379 52.5685 166.484 52.5685Z" fill="white"/>
<path d="M166.084 57.2217C172.188 57.2217 177.137 62.1701 177.137 68.2743C177.137 70.1879 176.65 71.988 175.794 73.5576C175.794 73.5576 173.552 67.9585 166.084 67.9585C158.615 67.9585 156.373 73.5576 156.373 73.5576C155.518 71.988 155.031 70.1879 155.031 68.2743C155.031 62.1701 159.98 57.2217 166.084 57.2217Z" fill="white"/>
</svg>
